<?xml version="1.0" standalone="no"?>
<!DOCTYPE svg
PUBLIC "-//W3C//DTD SVG 1.1//EN"
"http://www.w3.org/Graphics/SVG/1.1/DTD/svg11.dtd">
<svg xmlns="http://www.w3.org/2000/svg"
     version="1.1"
     width="690"
     height="690">
  <!-- <path fill="none" -->
  <!--       stroke="black" -->
  <!--       stroke-linecap="round" -->
  <!--       stroke-width="50" -->
  <!--       d="M  25, 25 L  50, 25 -->
  <!--          M  50, 25 Q 150, 25 150,125 -->
  <!--          M 150,125 C 150,200  25,250  25,325 -->
  <!--          M  25,325 Q  25,475 150,475 -->

  <!--          M 150,475 Q 450,475 375,275 -->
  <!--          M 375,275 Q 350,200 250,200 -->
  <!--          M 250,200 Q 150,200 125,275 -->
  <!--          M 125,275 Q  50,475 350,475 -->

  <!--          M 350,475 Q 475,475 475,325 -->
  <!--          M 475,325 C 475,250 350,200 350,125 -->
  <!--          M 350,125 Q 350, 25 450, 25 -->
  <!--          M 450, 25 L 475, 25"/> -->
  <!-- <line x1="250" -->
  <!--       x2="250" -->
  <!--       y1="225" -->
  <!--       y2="450" -->
  <!--       stroke="black" -->
  <!--       stroke-linecap="round" -->
  <!--       stroke-width="50"/> -->
  <circle cx="345"
          cy="345"
          r="340"
          fill="#1ed760"
          stroke="black"
          stroke-width="5"/>
  <path fill="none"
        stroke="black"
        stroke-linecap="round"
        stroke-width="50"
        d="m  120, 150
           l   25,   0
           q  100,   0  100, 100
           c    0,  75 -125, 125 -125,200
           q    0, 150  125, 150

           q  300,   0  225,-200
           q  -25, -75 -125, -75
           q -100,   0 -125,  75
           q  -75, 200  225, 200

           q  125,   0  125,-150
           c    0, -75 -125,-125 -125,-200
           q    0,-100  100,-100
           l   25,   0"/>
  <line x1="345"
        x2="345"
        y1="350"
        y2="575"
        stroke="black"
        stroke-linecap="round"
        stroke-width="50"/>
  <!-- <line x1="345" -->
  <!--       x2="345" -->
  <!--       y1="0" -->
  <!--       y2="700" -->
  <!--       stroke="red" -->
  <!--       stroke-linecap="round" -->
  <!--       stroke-width="1"/> -->
  <!-- <line y1="345" -->
  <!--       y2="345" -->
  <!--       x1="0" -->
  <!--       x2="700" -->
  <!--       stroke="red" -->
  <!--       stroke-linecap="round" -->
  <!--       stroke-width="1"/> -->
</svg>
