<?xml version="1.0" standalone="no"?>
<!DOCTYPE svg
PUBLIC "-//W3C//DTD SVG 1.1//EN"
"http://www.w3.org/Graphics/SVG/1.1/DTD/svg11.dtd">
<svg xmlns="http://www.w3.org/2000/svg"
     version="1.1"
     height="500px"
     width="500px"
     viewBox="0 0 50 50">
  <rect fill="none"
        height="50"
        width="50"/>
  <path d="M46,15v-4
           c 0 -1.104-0.896-2-2-2
           c 0, 0-24.648, 0-26,0
           c -1.469, 0-2.484-4-4-4
           H 3
           C 1.896, 5, 1, 5.896,1,7
           v 4
           v 29
           v 4
           c 0, 1.104, 0.896, 2, 2, 2
           h 39
           c 1.104, 0, 2-0.896, 2-2"
        fill="none"
        stroke="#000000"
        stroke-linecap="round"
        stroke-miterlimit="10"
        stroke-width="2"/>
  <path d="M 1, 44l5-27
           c 0-1.104, 0.896-2, 2-2
           h 39
           c 1.104, 0, 2, 0.896, 2, 2
           l -5,27"
        fill="none"
        stroke="#000000"
        stroke-linecap="round"
        stroke-miterlimit="10"
        stroke-width="2"/>
</svg>
