<?xml version="1.0" standalone="no"?>
<!DOCTYPE svg
PUBLIC "-//W3C//DTD SVG 1.1//EN"
"http://www.w3.org/Graphics/SVG/1.1/DTD/svg11.dtd">
<svg xmlns="http://www.w3.org/2000/svg"
     version="1.1"
     height="500px"
     width="500px"
     viewBox="0 0 50 50">
  <rect fill="none"
        height="50"
        width="50"/>
  <path d="M 47, 8
           c 0, 0-27.648, 0-29, 0
           c -1.469, 0-2.484-4-4-4
           H 3
           C 1.896, 4, 1, 4.896, 1, 6
           v 4
           v 30
           v 4
           c 0, 1.104, 0.896, 2, 2, 2
           h 44
           c 1.104, 0, 2-0.896, 2-2
           V 10
           C 49, 8.896, 48.104, 8, 47, 8"
        fill="none"
        stroke="#000000"
        stroke-linecap="round"
        stroke-miterlimit="10"
        stroke-width="2"/>
  <path d="M 1,27
           V 16
           c 0-1.104,0.896-2,2-2
           h 44
           c 1.104,0,2,0.896,2,2
           v 11"
        fill="none"
        stroke="#000000"
        stroke-linecap="round"
        stroke-miterlimit="10"
        stroke-width="2"/>
</svg>
