<?xml version="1.0" ?><!DOCTYPE svg  PUBLIC '-//W3C//DTD SVG 1.1//EN'  'http://www.w3.org/Graphics/SVG/1.1/DTD/svg11.dtd'>
<svg xmlns="http://www.w3.org/2000/svg"
     version="1.1"
     height="700px"
     viewBox="0 0 50 50"
     width="500px">
  <path d="M 43, 15
           v -4
           c 0 -1.104 -0.896 -2 -2 -2
           c 0, 0 -24.648, 0 -26, 0
           c  -1.469, 0 -2.484 -4 -4 -4
           H 3
           C 1.896, 5, 2, 5.896, 2, 7
           v 4
           v 28
           v 4
           c 0, 1.104, 0.896, 2, 1.2, 2
           h 37
           c 1.104, 0, 2 -0.896, 2 -2"
        fill="none"
        stroke="#000000"
        stroke-linecap="round"
        stroke-miterlimit="10"
        stroke-width="4"/>
  <path d="M 3, 44
           l 5 -25
           c 0 -1.104, 0.896 -2, 2 -2
           h 34.7
           c 1.104, 0, 2, 0.896, 2, 0.9
           l -5, 27"
        fill="none"
        stroke="#000000"
        stroke-linecap="round"
        stroke-miterlimit="10"
        stroke-width="4"/></svg>
